<?xml version="1.0" encoding="utf-8"?>
<!-- Generator: Adobe Illustrator 24.0.2, SVG Export Plug-In . SVG Version: 6.00 Build 0)  -->
<svg version="1.1" id="Capa_1" xmlns="http://www.w3.org/2000/svg" xmlns:xlink="http://www.w3.org/1999/xlink" x="0px" y="0px"
	 viewBox="0 0 1435.29 1435.29" style="enable-background:new 0 0 1435.29 1435.29;" xml:space="preserve">
<style type="text/css">
	.st0{fill:#00145C;}
</style>
<g>
	<path class="st0" d="M717.64,10.57c-390.43,0-707.07,316.64-707.07,707.07c0,390.6,316.64,707.07,707.07,707.07
		c390.6,0,707.07-316.48,707.07-707.07C1424.72,327.21,1108.24,10.57,717.64,10.57z M521.02,651.08H404.87v276.53H275.14V651.08
		H158.72v-96.17h362.31V651.08z M698.86,927.61L543.83,556.22h135.39l82.03,227.23l82.03-227.23h125.03L816.2,927.61H698.86z
		 M1211.6,919.61c-22.52,5.32-46.58,7.99-72.19,7.99c-27.85,0-53.68-4.51-77.48-13.54c-23.81-9.02-45.16-22.3-64.08-39.83
		c-19.42-18.05-33.9-38.07-43.44-60.08c-9.54-22-14.31-46.32-14.31-72.97c0-26.82,4.81-51.31,14.44-73.49
		c9.63-22.17,24.07-42.29,43.32-60.33c19.25-17.88,41.04-31.11,65.36-39.71c24.32-8.59,52.12-12.89,83.41-12.89
		c21.66,0,42.93,2.45,63.82,7.35c20.88,4.9,41.9,12.42,63.04,22.56v98.75c-18.05-11.35-36.06-19.81-54.02-25.4
		c-17.96-5.59-36.57-8.38-55.82-8.38c-29.91,0-53.93,8.34-72.07,25.01c-18.13,16.67-27.2,38.68-27.2,66.01
		c0,27.51,9.06,49.68,27.2,66.52c18.14,16.85,42.16,25.27,72.07,25.27c18.73,0,37.08-2.88,55.05-8.64
		c17.96-5.76,36.22-14.48,54.79-26.17l3.09,97.72C1255.77,906.21,1234.11,914.29,1211.6,919.61z"/>
</g>
</svg>
